<?xml version="1.0" encoding="iso-8859-1"?>
<!-- Uploaded to: SVG Repo, www.svgrepo.com, Generator: SVG Repo Mixer Tools -->
<svg fill="#000000" height="800px" width="800px" version="1.1" id="Layer_1" xmlns="http://www.w3.org/2000/svg" xmlns:xlink="http://www.w3.org/1999/xlink" 
	 viewBox="0 0 512 512" xml:space="preserve">
<g>
	<g>
		<g>
			<path d="M320,213.333c-23.531,0-42.667,19.136-42.667,42.667h85.333C362.667,232.469,343.531,213.333,320,213.333z"/>
			<path d="M320,170.667c11.776,0,21.333-9.579,21.333-21.333c0-11.755-9.557-21.333-21.333-21.333s-21.333,9.579-21.333,21.333
				C298.667,161.088,308.224,170.667,320,170.667z"/>
			<path d="M448,0H64C52.203,0,42.667,9.557,42.667,21.333v469.333C42.667,502.443,52.203,512,64,512h384
				c11.797,0,21.333-9.557,21.333-21.333V21.333C469.333,9.557,459.797,0,448,0z M128,106.667h42.667
				c11.797,0,21.333,9.557,21.333,21.333s-9.536,21.333-21.333,21.333H128c-11.797,0-21.333-9.557-21.333-21.333
				S116.203,106.667,128,106.667z M128,170.667h85.333c11.797,0,21.333,9.557,21.333,21.333s-9.536,21.333-21.333,21.333H128
				c-11.797,0-21.333-9.557-21.333-21.333S116.203,170.667,128,170.667z M128,234.667h21.333c11.797,0,21.333,9.557,21.333,21.333
				s-9.536,21.333-21.333,21.333H128c-11.797,0-21.333-9.557-21.333-21.333S116.203,234.667,128,234.667z M170.667,426.667H128
				c-11.797,0-21.333-9.557-21.333-21.333S116.203,384,128,384h42.667c11.797,0,21.333,9.557,21.333,21.333
				S182.464,426.667,170.667,426.667z M384,426.667H234.667c-11.797,0-21.333-9.557-21.333-21.333S222.869,384,234.667,384H384
				c11.797,0,21.333,9.557,21.333,21.333S395.797,426.667,384,426.667z M384,362.667H128c-11.797,0-21.333-9.557-21.333-21.333
				c0-11.776,9.536-21.333,21.333-21.333h256c11.797,0,21.333,9.557,21.333,21.333C405.333,353.109,395.797,362.667,384,362.667z
				 M405.333,277.333c0,11.776-9.536,21.333-21.333,21.333H256c-11.797,0-21.333-9.557-21.333-21.333V256
				c0-27.968,13.696-52.587,34.539-68.16c-8.171-10.752-13.205-24-13.205-38.507c0-35.285,28.715-64,64-64s64,28.715,64,64
				c0,14.507-5.035,27.755-13.205,38.507c20.843,15.573,34.539,40.192,34.539,68.16V277.333z"/>
		</g>
	</g>
</g>
</svg>